<mxfile host="app.diagrams.net" modified="2021-09-07T13:40:34.345Z" agent="5.0 (Windows NT 10.0; Win64; x64) AppleWebKit/537.36 (KHTML, like Gecko) Chrome/93.0.4577.63 Safari/537.36" etag="cF-jW_Fcs43B_-v1fxcU" version="15.1.0" type="github">
  <diagram id="pAdsG43C_GjvPr1CHphL" name="Page-1">
    <mxGraphModel dx="1038" dy="585" grid="1" gridSize="10" guides="1" tooltips="1" connect="1" arrows="1" fold="1" page="1" pageScale="1" pageWidth="850" pageHeight="1100" math="0" shadow="0">
      <root>
        <mxCell id="0" />
        <mxCell id="1" parent="0" />
        <mxCell id="FShJjDXbwpc7qcdyP_T4-4" style="edgeStyle=orthogonalEdgeStyle;rounded=0;orthogonalLoop=1;jettySize=auto;html=1;exitX=0.5;exitY=1;exitDx=0;exitDy=0;entryX=0.5;entryY=0;entryDx=0;entryDy=0;" edge="1" parent="1" source="FShJjDXbwpc7qcdyP_T4-1" target="FShJjDXbwpc7qcdyP_T4-2">
          <mxGeometry relative="1" as="geometry" />
        </mxCell>
        <mxCell id="FShJjDXbwpc7qcdyP_T4-1" value="Start" style="ellipse;whiteSpace=wrap;html=1;" vertex="1" parent="1">
          <mxGeometry x="80" y="50" width="120" height="80" as="geometry" />
        </mxCell>
        <mxCell id="FShJjDXbwpc7qcdyP_T4-6" style="edgeStyle=orthogonalEdgeStyle;rounded=0;orthogonalLoop=1;jettySize=auto;html=1;entryX=0.5;entryY=0;entryDx=0;entryDy=0;" edge="1" parent="1" source="FShJjDXbwpc7qcdyP_T4-2" target="FShJjDXbwpc7qcdyP_T4-5">
          <mxGeometry relative="1" as="geometry" />
        </mxCell>
        <mxCell id="FShJjDXbwpc7qcdyP_T4-2" value="Ask user to input Starting balance" style="rounded=0;whiteSpace=wrap;html=1;" vertex="1" parent="1">
          <mxGeometry x="80" y="170" width="120" height="60" as="geometry" />
        </mxCell>
        <mxCell id="FShJjDXbwpc7qcdyP_T4-7" value="No" style="edgeStyle=orthogonalEdgeStyle;rounded=0;orthogonalLoop=1;jettySize=auto;html=1;entryX=1;entryY=0.5;entryDx=0;entryDy=0;" edge="1" parent="1" source="FShJjDXbwpc7qcdyP_T4-5" target="FShJjDXbwpc7qcdyP_T4-2">
          <mxGeometry relative="1" as="geometry">
            <mxPoint x="210" y="200" as="targetPoint" />
            <Array as="points">
              <mxPoint x="230" y="310" />
              <mxPoint x="230" y="200" />
            </Array>
          </mxGeometry>
        </mxCell>
        <mxCell id="FShJjDXbwpc7qcdyP_T4-9" value="Yes" style="edgeStyle=orthogonalEdgeStyle;rounded=0;orthogonalLoop=1;jettySize=auto;html=1;exitX=0.5;exitY=1;exitDx=0;exitDy=0;entryX=0.5;entryY=0;entryDx=0;entryDy=0;" edge="1" parent="1" source="FShJjDXbwpc7qcdyP_T4-5" target="FShJjDXbwpc7qcdyP_T4-8">
          <mxGeometry relative="1" as="geometry" />
        </mxCell>
        <mxCell id="FShJjDXbwpc7qcdyP_T4-5" value="Is input valid?" style="rhombus;whiteSpace=wrap;html=1;" vertex="1" parent="1">
          <mxGeometry x="100" y="270" width="80" height="80" as="geometry" />
        </mxCell>
        <mxCell id="FShJjDXbwpc7qcdyP_T4-11" style="edgeStyle=orthogonalEdgeStyle;rounded=0;orthogonalLoop=1;jettySize=auto;html=1;exitX=0.5;exitY=1;exitDx=0;exitDy=0;" edge="1" parent="1" source="FShJjDXbwpc7qcdyP_T4-8" target="FShJjDXbwpc7qcdyP_T4-10">
          <mxGeometry relative="1" as="geometry" />
        </mxCell>
        <mxCell id="FShJjDXbwpc7qcdyP_T4-8" value="Ask user for yearly contribution" style="rounded=0;whiteSpace=wrap;html=1;" vertex="1" parent="1">
          <mxGeometry x="80" y="390" width="120" height="60" as="geometry" />
        </mxCell>
        <mxCell id="FShJjDXbwpc7qcdyP_T4-12" value="No" style="edgeStyle=orthogonalEdgeStyle;rounded=0;orthogonalLoop=1;jettySize=auto;html=1;exitX=1;exitY=0.5;exitDx=0;exitDy=0;entryX=1;entryY=0.5;entryDx=0;entryDy=0;" edge="1" parent="1" source="FShJjDXbwpc7qcdyP_T4-10" target="FShJjDXbwpc7qcdyP_T4-8">
          <mxGeometry relative="1" as="geometry">
            <mxPoint x="260" y="420" as="targetPoint" />
            <Array as="points">
              <mxPoint x="230" y="530" />
              <mxPoint x="230" y="420" />
            </Array>
          </mxGeometry>
        </mxCell>
        <mxCell id="FShJjDXbwpc7qcdyP_T4-13" style="edgeStyle=orthogonalEdgeStyle;rounded=0;orthogonalLoop=1;jettySize=auto;html=1;exitX=0.5;exitY=1;exitDx=0;exitDy=0;" edge="1" parent="1" source="FShJjDXbwpc7qcdyP_T4-10">
          <mxGeometry relative="1" as="geometry">
            <mxPoint x="140" y="610" as="targetPoint" />
          </mxGeometry>
        </mxCell>
        <mxCell id="FShJjDXbwpc7qcdyP_T4-10" value="Is input valid?" style="rhombus;whiteSpace=wrap;html=1;" vertex="1" parent="1">
          <mxGeometry x="100" y="490" width="80" height="80" as="geometry" />
        </mxCell>
        <mxCell id="FShJjDXbwpc7qcdyP_T4-16" style="edgeStyle=orthogonalEdgeStyle;rounded=0;orthogonalLoop=1;jettySize=auto;html=1;exitX=0.5;exitY=1;exitDx=0;exitDy=0;entryX=0.5;entryY=0;entryDx=0;entryDy=0;" edge="1" parent="1" source="FShJjDXbwpc7qcdyP_T4-14" target="FShJjDXbwpc7qcdyP_T4-15">
          <mxGeometry relative="1" as="geometry" />
        </mxCell>
        <mxCell id="FShJjDXbwpc7qcdyP_T4-17" value="Yes" style="edgeStyle=orthogonalEdgeStyle;rounded=0;orthogonalLoop=1;jettySize=auto;html=1;" edge="1" parent="1" source="FShJjDXbwpc7qcdyP_T4-14" target="FShJjDXbwpc7qcdyP_T4-10">
          <mxGeometry relative="1" as="geometry" />
        </mxCell>
        <mxCell id="FShJjDXbwpc7qcdyP_T4-14" value="Ask user average return on investment as %" style="rounded=0;whiteSpace=wrap;html=1;" vertex="1" parent="1">
          <mxGeometry x="80" y="610" width="120" height="60" as="geometry" />
        </mxCell>
        <mxCell id="FShJjDXbwpc7qcdyP_T4-18" value="No" style="edgeStyle=orthogonalEdgeStyle;rounded=0;orthogonalLoop=1;jettySize=auto;html=1;entryX=1;entryY=0.5;entryDx=0;entryDy=0;" edge="1" parent="1" source="FShJjDXbwpc7qcdyP_T4-15" target="FShJjDXbwpc7qcdyP_T4-14">
          <mxGeometry relative="1" as="geometry">
            <mxPoint x="230" y="640" as="targetPoint" />
            <Array as="points">
              <mxPoint x="230" y="750" />
              <mxPoint x="230" y="640" />
            </Array>
          </mxGeometry>
        </mxCell>
        <mxCell id="FShJjDXbwpc7qcdyP_T4-20" value="Yes" style="edgeStyle=orthogonalEdgeStyle;rounded=0;orthogonalLoop=1;jettySize=auto;html=1;exitX=0.5;exitY=1;exitDx=0;exitDy=0;entryX=0.5;entryY=0;entryDx=0;entryDy=0;" edge="1" parent="1" source="FShJjDXbwpc7qcdyP_T4-15" target="FShJjDXbwpc7qcdyP_T4-19">
          <mxGeometry relative="1" as="geometry" />
        </mxCell>
        <mxCell id="FShJjDXbwpc7qcdyP_T4-15" value="Is input valid?" style="rhombus;whiteSpace=wrap;html=1;" vertex="1" parent="1">
          <mxGeometry x="100" y="710" width="80" height="80" as="geometry" />
        </mxCell>
        <mxCell id="FShJjDXbwpc7qcdyP_T4-22" style="edgeStyle=orthogonalEdgeStyle;rounded=0;orthogonalLoop=1;jettySize=auto;html=1;exitX=0.5;exitY=1;exitDx=0;exitDy=0;entryX=0.5;entryY=0;entryDx=0;entryDy=0;" edge="1" parent="1" source="FShJjDXbwpc7qcdyP_T4-19" target="FShJjDXbwpc7qcdyP_T4-21">
          <mxGeometry relative="1" as="geometry" />
        </mxCell>
        <mxCell id="FShJjDXbwpc7qcdyP_T4-19" value="Ask user for number of years" style="rounded=0;whiteSpace=wrap;html=1;" vertex="1" parent="1">
          <mxGeometry x="80" y="830" width="120" height="60" as="geometry" />
        </mxCell>
        <mxCell id="FShJjDXbwpc7qcdyP_T4-23" value="No" style="edgeStyle=orthogonalEdgeStyle;rounded=0;orthogonalLoop=1;jettySize=auto;html=1;entryX=1;entryY=0.5;entryDx=0;entryDy=0;" edge="1" parent="1" source="FShJjDXbwpc7qcdyP_T4-21" target="FShJjDXbwpc7qcdyP_T4-19">
          <mxGeometry relative="1" as="geometry">
            <mxPoint x="240" y="860" as="targetPoint" />
            <Array as="points">
              <mxPoint x="230" y="970" />
              <mxPoint x="230" y="860" />
            </Array>
          </mxGeometry>
        </mxCell>
        <mxCell id="FShJjDXbwpc7qcdyP_T4-24" value="Yes" style="edgeStyle=orthogonalEdgeStyle;rounded=0;orthogonalLoop=1;jettySize=auto;html=1;exitX=0.5;exitY=1;exitDx=0;exitDy=0;entryX=0;entryY=0.5;entryDx=0;entryDy=0;" edge="1" parent="1" source="FShJjDXbwpc7qcdyP_T4-21" target="FShJjDXbwpc7qcdyP_T4-25">
          <mxGeometry relative="1" as="geometry">
            <mxPoint x="310" y="1070" as="targetPoint" />
          </mxGeometry>
        </mxCell>
        <mxCell id="FShJjDXbwpc7qcdyP_T4-21" value="Is input valid?" style="rhombus;whiteSpace=wrap;html=1;" vertex="1" parent="1">
          <mxGeometry x="100" y="930" width="80" height="80" as="geometry" />
        </mxCell>
        <mxCell id="FShJjDXbwpc7qcdyP_T4-26" style="edgeStyle=orthogonalEdgeStyle;rounded=0;orthogonalLoop=1;jettySize=auto;html=1;exitX=0.5;exitY=0;exitDx=0;exitDy=0;" edge="1" parent="1" source="FShJjDXbwpc7qcdyP_T4-25">
          <mxGeometry relative="1" as="geometry">
            <mxPoint x="310" y="970" as="targetPoint" />
          </mxGeometry>
        </mxCell>
        <mxCell id="FShJjDXbwpc7qcdyP_T4-25" value="Calculate balance at the end of each year" style="rounded=0;whiteSpace=wrap;html=1;" vertex="1" parent="1">
          <mxGeometry x="250" y="1010" width="120" height="60" as="geometry" />
        </mxCell>
        <mxCell id="FShJjDXbwpc7qcdyP_T4-29" style="edgeStyle=orthogonalEdgeStyle;rounded=0;orthogonalLoop=1;jettySize=auto;html=1;exitX=0.5;exitY=0;exitDx=0;exitDy=0;entryX=0.5;entryY=1;entryDx=0;entryDy=0;" edge="1" parent="1" source="FShJjDXbwpc7qcdyP_T4-27" target="FShJjDXbwpc7qcdyP_T4-28">
          <mxGeometry relative="1" as="geometry" />
        </mxCell>
        <mxCell id="FShJjDXbwpc7qcdyP_T4-27" value="Display Balance at the end of each year" style="rounded=0;whiteSpace=wrap;html=1;" vertex="1" parent="1">
          <mxGeometry x="250" y="910" width="120" height="60" as="geometry" />
        </mxCell>
        <mxCell id="FShJjDXbwpc7qcdyP_T4-28" value="End" style="ellipse;whiteSpace=wrap;html=1;" vertex="1" parent="1">
          <mxGeometry x="250" y="790" width="120" height="80" as="geometry" />
        </mxCell>
      </root>
    </mxGraphModel>
  </diagram>
</mxfile>
